<svg version="1.2" xmlns="http://www.w3.org/2000/svg" viewBox="0 0 60 62" width="60" height="62">
	<title>Calle2-svg</title>
	<style>
		.s0 { fill: #ff0000;stroke: #3e3828;stroke-width: .1 } 
	</style>
	<path id="Forma 4" fill-rule="evenodd" class="s0" d="m44.6 13.1c11.9 4.2 16.1 16.7 14 28.4-1.9 10.1-18 27.7-29.4 19.2-5.5-4-7-13.4-9.9-19.3-1.4-2.7-3.1-4.8-5.4-6.8-0.5-0.4 18.5-25.8 30.7-21.5z"/>
	<path id="Forma 23" fill-rule="evenodd" class="s0" d="m4.8 43.7c-0.1-0.3 0.2-0.5 0.4-0.7"/>
	<path id="Forma 24" fill-rule="evenodd" class="s0" d="m5.7 42.6c1.1-0.7 4.7-2.8 5.2-0.9 0.3 1.2-1.3 1.6-2.1 2-0.9 0.6-2.2 2.4-3.2 2.6-3.9 0.6-1.2-3.2 0.7-3.8"/>
	<path id="Forma 25" fill-rule="evenodd" class="s0" d="m13.2 44c0.7 0.5-2.8 2.3-3.1 2.5-1.8 0.8-7.3 5.6-8.8 1.8-1.2-3 3.7-0.5 4.9-0.8 1.6-0.5 6.6-3.9 7-3.5z"/>
	<path id="Forma 26" fill-rule="evenodd" class="s0" d="m15.5 48.9c-2 1.3-5.8 0.7-7.8 2.6-0.1 0.1-1.2 5.1-1.3 5-0.9-1-1.8-4.9-0.6-6 1.3-1.4 3.6-1.4 5.3-2.3 0.7-0.4 5.1 0.2 4.4 0.7z"/>
	<path id="Forma 27" fill-rule="evenodd" class="s0" d="m16.7 54.7c-1.2 0.7-2.7-1.3-4.3-0.5-1.6 0.9-1.4 3-2.8 3.9-4.3 2.6-7.5-0.6-8.3-5-0.2-1.2 1.1-2.5 2-1.3 1.1 1.4 0.9 6.1 3 5.8 2.8-0.3 1.2-3.1 2.4-4.3 1.1-1 8.9 0.9 8 1.4z"/>
	<path id="Forma 28" fill-rule="evenodd" class="s0" d="m16.8 58.2c-0.5 1.3-6.2 2.9-7.2 2-0.4-0.3 0.8-1.2 1-1.3 1.8-0.8 6.5-1.3 6.2-0.7z"/>
	<path id="Forma 29" fill-rule="evenodd" class="s0" d="m17.3 62.8c-2.5 1.7-5.3 0.6-8.1 0.4-0.9-0.1-2.8 0.1-3-1.2-0.3-2.2 4.7-0.2 5.8-0.2 2.2 0 5.7 0.7 5.3 1z"/>
	<path id="Forma 6" class="s0" d=""/>
	<path id="Forma 11" fill-rule="evenodd" class="s0" d="m8.1 15.9c1.1 1.5 0.4 4.3 0.5 6 0.2 3.2 3.1 8.9-2.1 9.4-1.5 0.2-1.5-2.2-1.7-3.2-0.5-2 2.1-13.7 3.3-12.2z"/>
	<path id="Forma 12" fill-rule="evenodd" class="s0" d="m22.7 6.8c-0.2 3.9-4.1 5.7-5.7 8.8-1.5 2.7-0.1 4.4-0.7 7-0.2 0.9-2.2 3.3-3.2 3.2-2.3-0.2-2.1-6.7-2.3-8.4 0-0.5-0.2-2.5 0.2-2.8"/>
	<path id="Forma 13" fill-rule="evenodd" class="s0" d="m32 6.7c0.5 0.4-0.2 5.6-0.6 6.3-0.9 1.9-4.6 3-6.4 4.3-0.9 0.6-2.6 2.8-3.7 2.5-3.8-1.2 1.9-7.7 2.4-9.1 0.3-0.6 6.8-5.6 8.3-4z"/>
	<path id="Forma 14" fill-rule="evenodd" class="s0" d="m8.9 10.8c-1-4.7 7.8-7.5 11.3-7.9 1.2-0.1 4-1.3 5 0.2 0.7 1.2-0.9 2.2-1.8 2.3-4.9 0.6-10.2 2.6-13.3 6.4"/>
	<path id="Forma 15" fill-rule="evenodd" class="s0" d="m4 10.9c-1.5 1-1.2 3.3 0.8 3.5 2.8 0.3-0.4-3.7-0.8-3.5z"/>
	<path id="Forma 16" fill-rule="evenodd" class="s0" d="m4.1 16.2c0.4 0.2 0.3 1.4 0.3 1.8-0.8 4.8 0 9.8-0.6 14.5-0.1 0.7-1.3 0.7-1.7 1.1-0.3 0.3-0.7 1.7-1.2 1.6-0.3 0-0.6-3.3-0.6-3.7-0.1-4.2-0.3-8.4-0.3-12.6 0-1.1 3.6-2.9 4.1-2.7z"/>
	<path id="Forma 17" class="s0" d=""/>
	<path id="Forma 18" class="s0" d=""/>
	<path id="Forma 7" fill-rule="evenodd" class="s0" d="m52.2-4.5c2.6 6 0.2 12.8-6.5 13.3-6.1 0.5-7.7-5.7-12.6-7.5-3.5-1.2-7.5-0.6-10.7-1.8-0.9-0.3-1.1-2.4-0.7-3.1 1.8-3.3 12.4-2 15.6-2.3 3.7-0.3 7.3-0.4 11.1-0.5"/>
	<path id="Forma 8" fill-rule="evenodd" class="s0" d="m60.8-3.4c6.4 2.8 5.6 9.3 5 15.4-0.3 2.8-0.6 6.9-3.1 8.8-2.4 1.9-4.9-2.2-5.9-3.7-4.2-6.1 1.5-11.8 1.5-18.8"/>
	<path id="Forma 9" fill-rule="evenodd" class="s0" d="m67.6 46.9c7.6 2 7.2 12.8 3.4 18.2-2.4 3.5-7.6 4.2-11.4 3.4-1.3-0.3-2.7-0.7-3.9-1.3-7.9-3.9 7-15 7-20.1"/>
	<path id="Forma 19" class="s0" d=""/>
	<path id="Forma 20" fill-rule="evenodd" class="s0" d="m7.7 34.2c0.3 0.7 0.4 1 0.4 1.8-0.5 6.5-8-1.3-2.9-1.6 0.6 0 1.2 0 1.8 0"/>
	<path id="Forma 21" fill-rule="evenodd" class="s0" d="m15.4 40.4c-0.1-0.9-0.6-1.4-1.3-1.9"/>
	<path id="Forma 22" fill-rule="evenodd" class="s0" d="m17 43.4c2.4 4.2 5 7.9 6.2 12.8 0.2 0.9 1.5 4.2 0 4.6-3 0.8-3.5-8.7-4.1-10.6-1-3.1-2.5-7.4-2.1-6.8z"/>
	<path id="Forma 10" fill-rule="evenodd" class="s0" d="m-4.2 4.8c-0.1-2-1-5.4 0.4-7.1 3.7-4.3 14.7-6.3 20-5.7 3.9 0.5 1.6 6-0.2 7.4-1.5 1.2-3.2 2.2-4.8 3.3-1.9 1.4-3.8 2.8-5.8 3.8-3.5 1.7-7.1 2.6-10.9 3.4"/>
</svg>