<svg version="1.2" xmlns="http://www.w3.org/2000/svg" viewBox="0 0 380 380" width="380" height="380">
	<title>Nuevo proyecto</title>
	<style>
		.s0 { fill: #000000 } 
	</style>
	<path id="Capa 1" fill-rule="evenodd" class="s0" d="m74.5 298.3c-7.7-1.3-15.8-1.5-23.5-3.3-1.6-0.4-7-0.1-7.3-2.4-1-6.1 9.7-28.8 10.6-37.7 2.7-25.1 2-49.9 2-75.2 0-18.8 2.5-37.4 2.5-55.9 0-1.8-0.7-16.2 0.6-16.3 4.2-0.3 11.1 4.7 15.2 6 6.1 2 15.5 0.2 21.9 0.2 22.9 0 48.1 3.6 64.6 21.1 13.5 14.1 5.6 54.8-2.7 69.7-13.4 24.1-41.6 33.3-58.1 53.9-6.3 7.9-10.4 15.4-14.1 24.8-1.9 4.8-10.3 15.3-11.7 15.1z"/>
	<path id="Forma 1" fill-rule="evenodd" class="s0" d="m89.2 295.5c5.8-7.6 8.4-21.9 17.6-26.1 8-3.6 20-0.9 28.5-0.8 14.9 0 28.7-2.4 43.4-3.2 8.4-0.5 16.6-3.3 24.8-4.5 1.2-0.1 6.5-1.7 7.4-0.1 1.9 3.2-1.8 5.9-3.8 7.6-5.8 5-13.5 9.2-18 15.7-5.9 8.6-9.2 17.6-13.2 27.1-1.4 3.5-2.6 9.5-5.9 11.8-2.2 1.5-7.2 0.6-9.6 0.6-9.8 0-20.2-3.3-29.7-5.3-10.3-2.1-25.3-1.7-34.8-6.5-0.3-0.2-0.6-0.4-1-0.6-4.5-2.1-10.2-3.1-12.9-7.7-0.4-0.7 5.8-6.1 7.2-8z"/>
	<path id="Forma 2" fill-rule="evenodd" class="s0" d="m118.2 257.8c0.4-2 1.9-4 3.1-5.7 4.3-5.6 9.7-10.8 15.3-15 14.5-10.9 33.2-4.2 49.8-7.3 9-1.7 17.5-7.2 25.9-10.5 1.3-0.5 7.9-3.4 9.3-1.7 0.2 0.3-0.2 0.8-0.2 1-1.8 4-3.4 9.1-3.9 13.3-0.6 4.7-1.5 17.5-5.3 20.6-3.4 2.8-10.9 2.4-15 2.8-11.8 1.3-22.6 3.1-34.8 3.1-10 0-19.8 1.9-29.6 1.9-4.4 0-11-1.1-15.1 0.1-0.5 0.2 0.3-1.9 0.5-2.6z"/>
	<path id="Forma 3" fill-rule="evenodd" class="s0" d="m184.4 134.1c11.1 6.8 18.5 18 30.2 24.5 16.1 8.8 53.4 23 64.1 34.1 10.7 11.1 15.8 42.2 15.8 56.1 0 10.3 2.3 32-7.7 39.4-10 7.3-21 6.3-32.7 6.3-7.5 0-14.6 0-21.9-1.1-7.1-1.1-23.9-0.2-29.1-6.7-0.3-0.4-0.2-1.2 0-1.7 2-5.7 10.7-11.3 14.3-16.6 7.9-11.8 7.9-27.1 12.2-40.3 1.1-3.5 4.1-14 0.9-16.2-31.4-21.9-13.7-10.3-56.6-2.9-3.3 0.5-2.6-6.7-2.6-9.3 0-9.9 7.6-16.4 7.6-25.9 0-10.7-0.2-21.1-3.1-31.3-0.5-2.1 5.7-10.2 8.6-8.4z"/>
	<path id="Forma 4" fill-rule="evenodd" class="s0" d="m197.8 292.6c10.1 1.7 28.2 7.6 38.6 7.6 9.3 0 18.7-0.7 28-0.7 1.6 0 8.3-0.9 7.9 1.9-0.5 4.1-6.9 7.4-9.6 9.8-15.3 13.7-40.5 15.6-60 12.5-5-0.8-10.7-1.9-15.8-2-1.1-0.1-5.1 0.2-5.5-1.4-2-9.4 13.7-28.2 16.4-27.7z"/>
	<path id="Forma 5" fill-rule="evenodd" class="s0" d="m187.7 120.1c3.1-0.6 8.7 4.2 11.2 5.8 7.7 4.8 17.6 7.5 23 14.8 7.5 10.3 32.6 16.2 36 17.3 7.8 2.3 17.9 12.7 25.9 13.9 17.7 2.5 7.7-23.5 17.7-14.6 9.9 8.9-10.1 41.1 16 43.3 7.1 0.6 12.3 23.9 6.1 31.3-1.7 2-11.7 6.2-13.7 3-2.7-4.3-1.8-10.5-4.2-14.8-7.3-13.5-16.5-30.9-21.9-38.8 0 0-15.5-8-22.1-13.2-12.1-9.7-35.4-10.1-46.8-24.2-5.8-7.1-30.4-23.3-27.2-23.8z"/>
	<path id="Forma 6" fill-rule="evenodd" class="s0" d="m325.5 240.1c0 0 2.5 20.2 2.5 27.5 0 13.4 2.5 41.8-4 53.8-3.3 6.2-12.1 5.9-18 5.9q-20.2 0-40.4 0c-3.2 0-14.9 1.7-17.6-0.8-1-0.9 5-3 5.3-3.1 2.6-1.6 5.4-3.6 7.9-5.5 8-6.4 18.9-11.4 25.6-19.2 7.6-8.8 11.1-19.2 12.8-30.8 0.7-5.4-1.6-12.1 2-16.9 7.5-9.7 24.1-12.5 23.9-10.9z"/>
</svg>